<svg xmlns="http://www.w3.org/2000/svg" viewBox="0 0 512 512">
  <rect width="512" height="512" rx="112" fill="#10201B"/>
  <path d="M322 70c64 24 96 82 81 149-20 93-101 167-217 214l-26-44c96-40 165-101 183-172 15-55-10-91-64-108l43-39Z" fill="#12B76A"/>
  <path d="M104 142c72-43 168-34 240 19-65 16-114 58-153 126L104 142Z" fill="#FACC15"/>
  <path d="M135 164l73 120M183 128l62 105M238 119l47 77" stroke="#10201B" stroke-width="19" stroke-linecap="round"/>
  <path d="M95 390c65-38 139-62 218-72" stroke="#FFFFFF" stroke-width="38" stroke-linecap="round"/>
  <path d="M288 326l114 114" stroke="#FFFFFF" stroke-width="38" stroke-linecap="round"/>
  <path d="M288 326l114 114" stroke="#12B76A" stroke-width="18" stroke-linecap="round"/>
</svg>
